<svg xmlns="http://www.w3.org/2000/svg" viewBox="338.0 80.0 913.6 853.1">
<path d="M 765,100 L 358,690 L 770,895 Z" fill="#0F3D91"/>
<path d="M 648.6,270.1 L 763.9,327.5 L 768.9,317.7 L 653.5,260.3 Z" fill="#ffffff"/>
<path d="M 583.5,364.5 L 764.7,454.7 L 769.7,444.9 L 588.4,354.7 Z" fill="#ffffff"/>
<path d="M 526.5,447.1 L 765.4,566.0 L 770.4,556.2 L 531.4,437.3 Z" fill="#ffffff"/>
<path d="M 477.6,517.9 L 766.0,661.4 L 771.0,651.6 L 482.6,508.1 Z" fill="#ffffff"/>
<path d="M 436.9,576.9 L 766.5,740.9 L 771.5,731.1 L 441.9,567.1 Z" fill="#ffffff"/>
<path d="M 770.2,330.8 L 833.6,301.2 L 826.0,284.9 L 762.6,314.4 Z" fill="#0F3D91"/>
<path d="M 771.0,458.0 L 870.7,411.5 L 863.1,395.2 L 763.4,441.6 Z" fill="#0F3D91"/>
<path d="M 771.7,569.3 L 907.6,505.9 L 900.0,489.6 L 764.1,552.9 Z" fill="#0F3D91"/>
<path d="M 772.3,664.7 L 944.5,584.4 L 936.9,568.0 L 764.7,648.3 Z" fill="#0F3D91"/>
<path d="M 772.8,744.2 L 981.3,647.0 L 973.6,630.6 L 765.2,727.8 Z" fill="#0F3D91"/>
<path d="M 778.5,913.1 L 1231.6,701.8 L 1170.6,708.2 L 1214.7,665.6 L 761.5,876.9 Z" fill="#0F3D91"/>
</svg>